<svg xmlns="http://www.w3.org/2000/svg" xmlns:xlink="http://www.w3.org/1999/xlink" width="509" zoomAndPan="magnify" viewBox="0 0 381.75 533.249983" height="711" preserveAspectRatio="xMidYMid meet" version="1.0"><defs><clipPath id="7bf63547eb"><path d="M 218.21875 303.023438 L 220.421875 303.023438 L 220.421875 304.820312 L 218.21875 304.820312 Z M 218.21875 303.023438 " clip-rule="nonzero"/></clipPath><clipPath id="767b0594d1"><path d="M 220.398438 303.660156 C 219.425781 305.15625 218.527344 304.859375 218.300781 304.558594 C 218.152344 304.257812 218.300781 303.359375 218.601562 303.136719 C 218.902344 302.910156 220.097656 303.210938 220.097656 303.210938 " clip-rule="nonzero"/></clipPath><clipPath id="5613a7dcc3"><path d="M 0.21875 0.0234375 L 2.421875 0.0234375 L 2.421875 1.820312 L 0.21875 1.820312 Z M 0.21875 0.0234375 " clip-rule="nonzero"/></clipPath><clipPath id="2db7b5d8a9"><path d="M 2.398438 0.660156 C 1.425781 2.15625 0.527344 1.859375 0.300781 1.558594 C 0.152344 1.257812 0.300781 0.359375 0.601562 0.136719 C 0.902344 -0.0898438 2.097656 0.210938 2.097656 0.210938 " clip-rule="nonzero"/></clipPath><clipPath id="5be79cd0ad"><rect x="0" width="3" y="0" height="2"/></clipPath><clipPath id="e77f7e3632"><path d="M 244.488281 79 L 379.761719 79 L 379.761719 326.757812 L 244.488281 326.757812 Z M 244.488281 79 " clip-rule="nonzero"/></clipPath><clipPath id="149578338f"><path d="M 0.527344 229 L 296.730469 229 L 296.730469 532.5 L 0.527344 532.5 Z M 0.527344 229 " clip-rule="nonzero"/></clipPath><clipPath id="c1cad9cdda"><path d="M 0.144531 339 L 39 339 L 39 479 L 0.144531 479 Z M 0.144531 339 " clip-rule="nonzero"/></clipPath><clipPath id="8de593f92f"><path d="M 25.449219 507.578125 L 34.558594 507.578125 L 34.558594 532.5 L 25.449219 532.5 Z M 25.449219 507.578125 " clip-rule="nonzero"/></clipPath></defs><g clip-path="url(#7bf63547eb)"><g clip-path="url(#767b0594d1)"><g transform="matrix(1, 0, 0, 1, 218, 303)"><g clip-path="url(#5be79cd0ad)"><g clip-path="url(#5613a7dcc3)"><g clip-path="url(#2db7b5d8a9)"><rect x="-301.985" width="549.72" fill="#e7191f" height="767.879976" y="-420.314996" fill-opacity="1"/></g></g></g></g></g></g><g clip-path="url(#e77f7e3632)"><path fill="#e9e9e9" d="M 308.742188 107.492188 C 284.777344 167.820312 289.25 180.027344 254.097656 224.761719 C 228.441406 257.410156 261.570312 338.660156 284.519531 325.214844 C 353.632812 284.742188 361.179688 235.773438 378.832031 144.082031 C 386.546875 104.023438 344.539062 42.4375 308.742188 107.492188 " fill-opacity="1" fill-rule="evenodd"/></g><path fill="#393536" d="M 246.332031 274.050781 C 246.929688 277.46875 247.691406 280.859375 248.585938 284.183594 C 249.273438 285.285156 250.117188 286.414062 251.132812 287.570312 C 266.128906 304.597656 262.238281 304.839844 282.355469 319.398438 C 284.152344 320.699219 286.761719 321.546875 289.808594 322.023438 C 318.0625 304.476562 335.367188 285.210938 347.34375 261.523438 C 343.214844 254.160156 336.480469 245.738281 331.566406 243.003906 C 303.773438 227.523438 273.546875 250.613281 273.476562 250.578125 L 273.316406 251.265625 C 276.863281 260.933594 263.796875 254.203125 258.375 258.5 C 252.445312 263.195312 247.417969 268.273438 246.332031 274.050781 " fill-opacity="1" fill-rule="evenodd"/><g clip-path="url(#149578338f)"><path fill="#e9e9e9" d="M 69.261719 237.457031 C 43.941406 259.324219 54.285156 332.941406 35.15625 340.234375 C 16.65625 365.777344 -22.5 430.90625 18.710938 488.8125 C 19.554688 490.003906 0.0078125 510.113281 5.71875 526.632812 C 35.425781 536.921875 140.359375 525.871094 185.523438 532.066406 C 195.328125 533.414062 269.816406 531.703125 273.355469 526.042969 C 278.835938 517.273438 285.578125 532.894531 285.578125 487.335938 C 305.964844 439.523438 298.730469 258.03125 260.535156 232.597656 C 253.914062 228.191406 245.164062 228.566406 235.710938 231.835938 C 230.242188 233.726562 159.585938 239.570312 153.074219 238.304688 C 134.082031 234.613281 107.222656 221.886719 91.308594 236.414062 C 86.957031 240.390625 74.785156 241.972656 69.261719 237.457031 " fill-opacity="1" fill-rule="evenodd"/></g><path fill="#c2953f" d="M 291.988281 463.316406 C 295.488281 443.089844 297.058594 416.175781 296.628906 387.820312 C 274.5625 389.914062 257.390625 406.164062 257.390625 425.898438 C 257.390625 444.226562 272.203125 459.542969 291.988281 463.316406 " fill-opacity="1" fill-rule="evenodd"/><path fill="#c2953f" d="M 46.867188 315.238281 C 44.628906 328.019531 41.527344 337.804688 35.15625 340.234375 C 32.089844 344.46875 28.453125 349.796875 24.710938 355.996094 C 29.328125 369.289062 43.011719 378.925781 59.171875 378.925781 C 79.125 378.925781 95.304688 364.234375 95.304688 346.105469 C 95.304688 327.980469 79.125 313.285156 59.171875 313.285156 C 54.851562 313.285156 50.707031 313.972656 46.867188 315.238281 " fill-opacity="1" fill-rule="evenodd"/><path fill="#e9e9e9" d="M 124.863281 364.855469 C 68.738281 368.289062 56.894531 447.6875 133.710938 452.507812 C 137.347656 421.910156 123.117188 392.207031 124.863281 364.855469 " fill-opacity="1" fill-rule="evenodd"/><path fill="#393536" d="M 124.863281 364.855469 C 68.738281 368.289062 58.023438 454.734375 136.621094 452.242188 C 134.242188 438.433594 123.117188 392.207031 124.863281 364.855469 " fill-opacity="1" fill-rule="evenodd"/><path fill="#e8bc63" d="M 162.414062 322.675781 C 174.910156 322.675781 185.105469 312.546875 185.105469 300.128906 C 185.105469 287.710938 174.910156 277.582031 162.414062 277.582031 C 149.914062 277.582031 139.722656 287.710938 139.722656 300.128906 C 139.722656 312.546875 149.914062 322.675781 162.414062 322.675781 " fill-opacity="1" fill-rule="evenodd"/><path fill="#ed1c24" d="M 70.40625 219.878906 C 70.558594 216.539062 42.289062 234.046875 67.820312 245.996094 C 142.507812 280.953125 248.425781 255.738281 262.632812 225.703125 C 267.628906 215.144531 266.890625 195.210938 246.761719 199.527344 C 242.59375 200.417969 201.691406 201.109375 194.546875 200.46875 C 175.980469 198.808594 170.300781 206.277344 154.21875 206.238281 C 146.964844 206.21875 135.925781 213.308594 117.125 213.066406 C 108.152344 212.953125 99.023438 214.625 87.492188 214.425781 C 82.867188 214.347656 73.757812 216.347656 70.40625 219.878906 " fill-opacity="1" fill-rule="evenodd"/><path fill="#e9e9e9" d="M 72.761719 23.441406 C 62.070312 28.375 61.757812 65.347656 57.609375 78.195312 C 29.679688 113.742188 3.460938 243.101562 156.777344 237.96875 C 286.214844 233.636719 284.933594 135.246094 266.203125 81.140625 C 256.472656 53.039062 253.695312 11.78125 241.773438 7.351562 C 226.554688 1.691406 209.445312 36.535156 197.558594 43.121094 C 192.179688 40.921875 125.960938 37.695312 116.46875 49.9375 C 114.84375 43.207031 84.1875 18.171875 72.761719 23.441406 " fill-opacity="1" fill-rule="evenodd"/><path fill="#f68995" d="M 211.628906 143.941406 C 222.371094 143.941406 231.078125 152.652344 231.078125 163.402344 C 231.078125 174.148438 222.371094 182.863281 211.628906 182.863281 C 200.886719 182.863281 192.179688 174.148438 192.179688 163.402344 C 192.179688 152.652344 200.886719 143.941406 211.628906 143.941406 Z M 95.941406 150.902344 C 106.679688 150.902344 115.390625 159.617188 115.390625 170.367188 C 115.390625 181.113281 106.679688 189.828125 95.941406 189.828125 C 85.199219 189.828125 76.492188 181.113281 76.492188 170.367188 C 76.492188 159.617188 85.199219 150.902344 95.941406 150.902344 " fill-opacity="1" fill-rule="evenodd"/><path fill="#ed1c24" d="M 241.765625 37.222656 C 223.617188 30.234375 225.191406 40.117188 217.152344 47.957031 C 206.535156 58.308594 241.550781 64.824219 247.125 71.859375 C 252.480469 78.613281 245.375 38.609375 241.765625 37.222656 " fill-opacity="1" fill-rule="evenodd"/><path fill="#231f20" d="M 72.761719 23.441406 C 62.070312 28.375 61.757812 65.347656 57.609375 78.195312 C 47.457031 91.113281 37.542969 116.421875 36.378906 143.164062 C 37.960938 142.617188 99.925781 114.304688 135.828125 85.839844 C 162.785156 64.464844 172.410156 40.550781 145.324219 41.789062 C 144.941406 41.816406 144.5625 41.851562 144.183594 41.882812 C 141.667969 42.191406 139.351562 42.449219 137.199219 42.644531 C 127.292969 43.980469 119.320312 46.257812 116.46875 49.9375 C 115.273438 44.992188 98.398438 30.15625 85.003906 24.734375 C 83.078125 24.191406 81.085938 23.730469 78.433594 22.859375 C 76.265625 22.570312 74.332031 22.71875 72.761719 23.441406 " fill-opacity="1" fill-rule="evenodd"/><path fill="#ed1c24" d="M 96.628906 47.335938 C 84.476562 50.25 84.507812 41.4375 78.011719 50.058594 C 74.464844 54.769531 71.800781 79.941406 76.273438 77.765625 C 81.753906 75.097656 102.144531 68.828125 104.429688 65.617188 C 107.894531 60.75 95.546875 48.902344 92.285156 48.042969 L 96.628906 47.335938 " fill-opacity="1" fill-rule="evenodd"/><path fill="#bdbcbc" d="M 324.332031 88.808594 C 348.613281 79.28125 376.503906 82.507812 368.550781 152.816406 C 365.96875 179.53125 362.128906 205.382812 354.128906 230.507812 C 341.441406 270.355469 326.585938 283.328125 302.023438 313.839844 C 312.652344 305.234375 380.625 264.027344 378.5 120.03125 C 377.996094 85.875 348.25 67.519531 324.332031 88.808594 " fill-opacity="1" fill-rule="evenodd"/><path fill="#231f20" d="M 303.515625 256.058594 C 310.132812 249.328125 332.210938 276.476562 321.902344 285.183594 C 325.40625 274.050781 310.582031 270.144531 303.515625 256.058594 Z M 343.835938 255.921875 C 332.585938 230.214844 291.363281 232.96875 279.125 246.96875 C 302.933594 241.28125 323.859375 238.753906 343.835938 255.921875 " fill-opacity="1" fill-rule="evenodd"/><path fill="#d3d2d2" d="M 52.292969 194.832031 C 49.210938 200.847656 62.660156 214.164062 67.15625 217.582031 C 81.574219 228.546875 114.992188 241.230469 128.792969 241.019531 C 130.933594 240.988281 143.011719 243.734375 157.304688 242.5 C 181.121094 240.441406 196.195312 237.554688 218.582031 227.707031 C 233.816406 220.609375 273.308594 184.617188 268.695312 171.988281 C 264.21875 184.277344 234.011719 218.015625 203.324219 227.636719 C 152.984375 243.414062 86.65625 239.558594 52.292969 194.832031 " fill-opacity="1" fill-rule="evenodd"/><path fill="#7f1013" d="M 202.4375 252.753906 L 193.644531 254.207031 C 193.652344 248.035156 191.421875 240.304688 186.320312 241.839844 C 183.027344 248.796875 191.667969 256.109375 180.65625 257.191406 C 178.847656 257.371094 177.464844 257.386719 175.398438 257.671875 C 170.707031 258.3125 168.769531 258.109375 167.269531 261.917969 C 183.917969 274.09375 250.8125 245.167969 267.691406 226.402344 C 267.96875 220.988281 263.324219 219.464844 259.21875 220.894531 C 253.792969 225.324219 250.144531 230.078125 241.738281 235.953125 C 243.03125 233 245.296875 232.277344 244.527344 227.417969 C 243.875 223.300781 242.199219 221.03125 238.4375 220.886719 C 238.34375 221.078125 238.265625 221.191406 238.253906 221.503906 C 237.75 236.230469 248.378906 237.261719 226.867188 243.84375 C 228.367188 239.414062 226.585938 229.019531 222.269531 227.546875 C 212.339844 238.328125 236.308594 246.941406 209.507812 249.886719 C 210.035156 225.203125 200.324219 236.5 202.4375 252.753906 " fill-opacity="1" fill-rule="evenodd"/><path fill="#918f8f" d="M 286.835938 481.8125 C 314.085938 409.988281 297.136719 296.003906 273.070312 248.769531 C 289.828125 323.621094 300.019531 349.832031 286.835938 481.8125 " fill-opacity="1" fill-rule="evenodd"/><path fill="#bdbcbc" d="M 60.214844 464.464844 C 50.332031 430.765625 48.222656 297.941406 54.890625 256.203125 C 52.921875 258.621094 48.070312 299.183594 47.207031 306.179688 C 42.960938 340.644531 44.5 440.734375 60.214844 464.464844 " fill-opacity="1" fill-rule="evenodd"/><path fill="#7f1013" d="M 105.074219 261.109375 C 112.019531 262.738281 139.742188 268.203125 145.03125 264.628906 C 148.382812 259.808594 143.523438 260.46875 140.011719 258.457031 C 139.960938 253.363281 141.167969 246.53125 134.988281 246.828125 C 132.542969 249.246094 132.898438 254.226562 134.21875 257.519531 L 122.105469 257.105469 C 122.742188 251.539062 125.382812 248.785156 122.421875 244.171875 C 114.800781 242.589844 116.59375 250.292969 116.398438 255.957031 L 106.777344 254.746094 C 107.542969 249.289062 110.246094 241.085938 102.644531 241.328125 C 100.894531 245.613281 101.753906 248.246094 101.160156 252.773438 C 98.992188 252.425781 92.375 250.605469 89.394531 250 C 91.214844 245.265625 92.785156 237.609375 88.59375 234.453125 C 83.675781 236.386719 83.269531 242.238281 84.257812 248.105469 C 66.027344 248.492188 77.707031 236.8125 76.574219 230.878906 C 76.027344 228.03125 72.941406 225.121094 70.320312 233.167969 L 68.195312 241.746094 C 66.886719 244.984375 60.066406 237.699219 61.46875 230.378906 C 62.144531 226.84375 63.839844 225.628906 64.613281 222.988281 C 66.449219 216.714844 58.0625 220.21875 56.355469 227.855469 C 54.375 236.710938 57.300781 242.644531 64.066406 245.828125 C 77.105469 251.960938 90.984375 257.800781 105.074219 261.109375 " fill-opacity="1" fill-rule="evenodd"/><path fill="#393536" d="M 37.078125 134.25 C 41.140625 124.078125 42.871094 103.21875 62.789062 82.660156 C 63.898438 81.519531 69.839844 45.773438 70.269531 39.734375 C 72.84375 3.4375 101.523438 47.6875 111.054688 51.871094 C 115.285156 53.730469 119.21875 49.796875 114.300781 43.957031 C 108.1875 36.699219 84.210938 17.574219 74.167969 21.300781 C 60.664062 26.324219 60.445312 63.398438 57.609375 78.195312 C 56.746094 82.683594 33.316406 107.382812 37.078125 134.25 " fill-opacity="1" fill-rule="evenodd"/><g clip-path="url(#c1cad9cdda)"><path fill="#d3d2d2" d="M 12.523438 478.328125 L 9.40625 440.996094 C 8.367188 399.972656 10.445312 402.976562 23.148438 368.789062 C 27.863281 356.101562 37.386719 342.835938 38.765625 339.371094 C 29.742188 341.289062 20.1875 358.085938 16.65625 365.777344 C 12.117188 375.65625 5.367188 389.574219 3.339844 400.847656 C 1.980469 408.417969 0.167969 413.261719 0.621094 421.355469 C 1.027344 428.597656 0.445312 435 1.421875 442.84375 C 2.425781 450.914062 6.675781 473.421875 12.523438 478.328125 " fill-opacity="1" fill-rule="evenodd"/></g><path fill="#231f20" d="M 207.050781 524.820312 C 209.167969 524.484375 208.21875 525.457031 209.832031 518.460938 C 214 500.382812 222.09375 482.355469 239.808594 473.792969 C 271.539062 458.453125 275.53125 511.839844 284.832031 514.800781 C 292.730469 493.726562 272.898438 463.601562 246.691406 465.613281 C 229.429688 466.941406 212.484375 482.15625 209.03125 501.984375 C 207.691406 509.683594 205.058594 517.132812 207.050781 524.820312 " fill-opacity="1" fill-rule="evenodd"/><path fill="#231f20" d="M 68.738281 497.269531 C 69.269531 487.675781 84.753906 473.34375 103.339844 472.191406 C 138.515625 470.011719 140.914062 522.125 146.664062 525.265625 C 158.699219 519.835938 144.742188 463.941406 99.003906 465.605469 C 64.964844 466.839844 64.9375 513.585938 68.738281 497.269531 " fill-opacity="1" fill-rule="evenodd"/><path fill="#bdbcbc" d="M 197.230469 45.894531 C 202.570312 46.363281 218.332031 26.019531 223.890625 20.375 C 243.230469 0.734375 249.097656 11.902344 255.203125 42.398438 C 256.574219 49.242188 259.871094 76.078125 262.148438 78.695312 C 272.421875 77.199219 257.984375 16.570312 246.996094 6.472656 C 243.484375 0.0429688 234.570312 4 230.261719 6.835938 C 223.113281 11.546875 215.6875 16.804688 210.621094 23.546875 C 207.683594 27.457031 196.828125 38.929688 197.230469 45.894531 " fill-opacity="1" fill-rule="evenodd"/><path fill="#d3d2d2" d="M 274.832031 201.949219 C 290.871094 199.113281 308.984375 120.429688 315.761719 103.734375 C 306.832031 104.835938 294.746094 140.824219 291.867188 149.039062 C 286.496094 164.359375 283.242188 179.039062 277.160156 194.992188 C 275.578125 198.125 274.835938 198.929688 274.832031 201.949219 " fill-opacity="1" fill-rule="evenodd"/><path fill="#8f5e23" d="M 177.757812 292.421875 C 175.742188 298.71875 180.324219 303.195312 175.292969 310.558594 C 171.835938 315.617188 167.058594 319.832031 158.300781 318.15625 C 152.195312 316.992188 140.660156 308.648438 141.164062 299.910156 C 141.511719 293.875 143.816406 294.058594 144.152344 289.984375 C 137.328125 290.722656 135.789062 306.910156 139.996094 312.222656 C 144.550781 317.96875 151.273438 324.203125 161.277344 325.675781 C 170 326.960938 180.714844 320.6875 183.652344 315.441406 C 186.527344 310.316406 191.203125 293.570312 177.757812 292.421875 " fill-opacity="1" fill-rule="evenodd"/><path fill="#231f20" d="M 97.203125 441.5 L 89.851562 421.808594 C 85.410156 408.722656 89.957031 390.023438 99.691406 381.253906 C 112.175781 370.007812 114.914062 374.613281 115.273438 369.347656 C 109.03125 366.226562 87.652344 381.390625 82.308594 397.59375 C 78.957031 407.761719 79.734375 420.933594 85.050781 429.273438 C 86.390625 431.378906 86.605469 432.003906 88.007812 434.097656 C 90.175781 437.328125 92.613281 440.441406 97.203125 441.5 " fill-opacity="1" fill-rule="evenodd"/><path fill="#be171d" d="M 215.085938 50.464844 C 247.21875 15.722656 241.453125 83.167969 249.023438 69.507812 C 251.007812 61.671875 251.695312 59.28125 250.179688 50.929688 C 248.589844 42.195312 246.820312 37.976562 241.910156 32.339844 C 235.898438 25.441406 230.066406 27.132812 224.667969 33.273438 C 222.097656 36.199219 214.5 44.757812 215.085938 50.464844 " fill-opacity="1" fill-rule="evenodd"/><path fill="#231f20" d="M 37.59375 141.5 C 47.441406 145.46875 140.199219 88.964844 137.554688 82.746094 C 137.445312 82.488281 62.433594 128.542969 49.855469 133.027344 C 42.578125 135.621094 37.296875 137.28125 37.59375 141.5 " fill-opacity="1" fill-rule="evenodd"/><path fill="#be171d" d="M 73.699219 78.074219 C 81.117188 75.597656 76.957031 55.839844 83.460938 47.9375 C 89.539062 50.125 99.195312 63.515625 105.800781 63.421875 C 103.695312 51.453125 88.964844 37.546875 80.304688 39.550781 C 73.675781 41.078125 73.671875 51.101562 72.652344 57.0625 C 71.425781 64.21875 69.527344 72.378906 73.699219 78.074219 " fill-opacity="1" fill-rule="evenodd"/><path fill="#231f20" d="M 162.34375 95.34375 L 163.0625 64.703125 C 162.925781 57.695312 164.640625 45.441406 161.09375 42.589844 C 149.019531 32.886719 153.15625 64.847656 153.785156 71.289062 C 154.652344 80.199219 156.953125 91.476562 162.34375 95.34375 " fill-opacity="1" fill-rule="evenodd"/><path fill="#231f20" d="M 7.273438 525.003906 C 11.023438 521.765625 8.027344 520.957031 11.140625 512.703125 L 12.257812 509.515625 C 14.277344 503.652344 16.175781 499.722656 19.738281 495.253906 C 27.230469 485.859375 38.050781 482.847656 50.050781 482.121094 L 45.078125 480.386719 C 40.582031 479.882812 32.714844 480.597656 28.492188 481.527344 C 21.707031 483.023438 17.308594 485.226562 13.070312 490.367188 C 1.910156 503.902344 0.511719 522.480469 7.273438 525.003906 " fill-opacity="1" fill-rule="evenodd"/><path fill="#bdbcbc" d="M 272.386719 161.597656 C 286.152344 147.238281 281.289062 98.183594 267.378906 84.667969 C 276.535156 105.542969 275.25 140.269531 272.386719 161.597656 " fill-opacity="1" fill-rule="evenodd"/><path fill="#a7a5a6" d="M 191.789062 474.171875 C 212.648438 474.457031 246.148438 428.414062 239.179688 412.628906 C 231.464844 425.78125 216.988281 459.585938 191.789062 474.171875 " fill-opacity="1" fill-rule="evenodd"/><path fill="#231f20" d="M 180.25 128.820312 C 206.824219 115.132812 233.230469 129.179688 233.863281 129.03125 C 230.46875 116.4375 195.246094 106.5 180.25 128.820312 " fill-opacity="1" fill-rule="evenodd"/><path fill="#231f20" d="M 184.171875 81.957031 C 186.550781 73.527344 187.800781 69.980469 187.414062 60.539062 C 186.429688 36.652344 168.683594 39.507812 174.574219 47.644531 C 180.398438 55.6875 177.910156 76.5 184.171875 81.957031 " fill-opacity="1" fill-rule="evenodd"/><path fill="#231f20" d="M 86.425781 135.035156 C 105.488281 122.121094 127.285156 128.75 134.328125 130.1875 C 129.773438 114.511719 86.976562 121.277344 86.425781 135.035156 " fill-opacity="1" fill-rule="evenodd"/><path fill="#be171d" d="M 160.382812 146.15625 C 170.097656 144.5625 175.058594 135.171875 158.253906 133.1875 C 145.9375 131.738281 140.160156 145.546875 156.539062 146.355469 C 156.699219 148.074219 157.171875 151.945312 156.320312 153.539062 C 155.996094 154.160156 155.742188 155.800781 155.835938 157.324219 C 153.054688 162.464844 153.710938 166.792969 145.15625 168.679688 C 133.257812 171.308594 135.707031 163.460938 128.488281 162.332031 C 135.066406 183.226562 157.148438 174.589844 158.964844 163.957031 C 166.523438 182.253906 180.789062 175.933594 185.367188 165.976562 C 183.332031 166.476562 173.242188 172.550781 167.867188 167.929688 C 164.050781 164.652344 163.476562 159.535156 159.664062 157.429688 C 160.332031 154.320312 160.847656 149.191406 160.382812 146.15625 " fill-opacity="1" fill-rule="evenodd"/><path fill="#231f20" d="M 56.660156 171.820312 C 60.578125 175.21875 65.058594 170.207031 80.292969 167.789062 C 87.785156 166.597656 98.890625 166.300781 104.859375 161.425781 C 102.898438 159.921875 96.679688 161.511719 92.125 161.699219 C 79.011719 162.238281 74.046875 161.199219 60.78125 168.175781 C 58.203125 169.535156 57.335938 169.800781 56.660156 171.820312 " fill-opacity="1" fill-rule="evenodd"/><path fill="#918f8f" d="M 127.097656 392.414062 L 127.953125 347.457031 C 127.714844 344.839844 128.671875 341.050781 124.996094 341.023438 C 117.042969 340.964844 123.160156 382.679688 127.097656 392.414062 " fill-opacity="1" fill-rule="evenodd"/><path fill="#231f20" d="M 310.722656 293.386719 C 310.394531 282.496094 310.230469 279.988281 305.441406 271.964844 C 303.40625 268.550781 297.230469 258.660156 291.601562 260.539062 L 300.21875 277.21875 C 301.660156 280.375 302.996094 283.269531 304.363281 286.0625 C 306.292969 290.007812 306.65625 292.578125 310.722656 293.386719 " fill-opacity="1" fill-rule="evenodd"/><path fill="#231f20" d="M 92.882812 401.128906 C 93.648438 412.050781 112.027344 407.058594 120.597656 401.328125 C 123.40625 399.449219 122.113281 400.382812 124.269531 398.046875 C 125.875 396.3125 126.351562 396.140625 127.507812 394.230469 C 116.917969 394.675781 107.921875 401.351562 92.882812 401.128906 " fill-opacity="1" fill-rule="evenodd"/><path fill="#231f20" d="M 251.058594 164.515625 C 248.828125 157.566406 241.179688 155.183594 234.949219 154.234375 C 232.714844 153.890625 214.152344 152.296875 212.011719 153.480469 C 203.613281 158.128906 235.347656 160.308594 240.429688 161.195312 C 245.550781 162.085938 246.871094 163.527344 251.058594 164.515625 " fill-opacity="1" fill-rule="evenodd"/><path fill="#be171d" d="M 353.769531 141.730469 C 355.824219 140.796875 356.320312 137.78125 358.753906 132.722656 C 364.578125 120.625 360.890625 103.132812 351.414062 103.84375 C 351.101562 107.71875 353.660156 108.085938 354.710938 120.691406 C 355.277344 127.488281 353.769531 135.015625 353.769531 141.730469 " fill-opacity="1" fill-rule="evenodd"/><path fill="#be171d" d="M 247.097656 528.691406 C 249.953125 522.125 247.546875 510.425781 245.453125 503.527344 C 244.464844 500.261719 244.023438 499.015625 240.175781 499.492188 C 237.488281 503.707031 239.40625 528.554688 247.097656 528.691406 " fill-opacity="1" fill-rule="evenodd"/><path fill="#be171d" d="M 324.601562 137.832031 C 323.242188 131.570312 325.976562 124.847656 327.449219 118.828125 C 328.171875 115.878906 333.90625 100.058594 327.199219 101.867188 C 322.097656 103.25 320.089844 125.964844 320.824219 130.148438 C 321.023438 131.285156 321.894531 133.933594 322.230469 134.792969 C 323.429688 137.855469 322.519531 137.257812 324.601562 137.832031 " fill-opacity="1" fill-rule="evenodd"/><path fill="#231f20" d="M 70.585938 182.214844 C 75.039062 185.066406 84.128906 180.5625 88.351562 179.28125 L 101.390625 175.015625 C 102.222656 174.703125 102.367188 174.730469 103.191406 174.25 C 105.441406 172.9375 103.976562 174.042969 105.097656 172.640625 C 96.519531 170.105469 85.660156 173.3125 76.945312 176.558594 C 72.828125 178.089844 70.105469 178.105469 70.585938 182.214844 " fill-opacity="1" fill-rule="evenodd"/><path fill="#be171d" d="M 253.769531 499.75 C 252.398438 503.230469 255.046875 509.019531 256.160156 512.765625 C 256.871094 515.144531 257.316406 516.398438 258.082031 518.589844 C 259.316406 522.128906 258.746094 522.84375 260.949219 524.523438 C 262.488281 523.601562 262.933594 524.144531 264.453125 517.335938 C 265.0625 514.625 265.007812 511.21875 264.292969 508.949219 C 262.558594 503.460938 260.957031 498.695312 253.769531 499.75 " fill-opacity="1" fill-rule="evenodd"/><path fill="#231f20" d="M 96.492188 421.324219 C 102.351562 424.015625 108.375 421.578125 112.703125 419.457031 C 120.398438 415.6875 123.390625 415.847656 124.378906 410.589844 C 119.867188 411.238281 112.089844 412.492188 107.878906 413.640625 C 103.339844 414.875 96.882812 416.277344 96.492188 421.324219 " fill-opacity="1" fill-rule="evenodd"/><path fill="#be171d" d="M 339.738281 136.179688 C 340.058594 135.574219 339.972656 136.128906 340.167969 134.4375 C 340.492188 131.664062 339.878906 131.859375 341 128.039062 L 343.121094 108.570312 C 342.839844 103.960938 342.171875 101.792969 338.046875 101.796875 C 336.09375 104.949219 334.445312 128.445312 339.738281 136.179688 " fill-opacity="1" fill-rule="evenodd"/><path fill="#231f20" d="M 104.324219 433.453125 C 107.964844 441.894531 127.109375 433.277344 128.207031 423.273438 C 124.5625 423.648438 119.453125 426.277344 115.917969 427.8125 C 111.898438 429.5625 106.179688 430.4375 104.324219 433.453125 " fill-opacity="1" fill-rule="evenodd"/><path fill="#be171d" d="M 92.390625 530.996094 C 91.546875 520.046875 88.851562 517.777344 90.652344 503.515625 C 85.992188 503 82.488281 501.917969 84.945312 516.027344 C 85.910156 521.585938 87.085938 529.0625 92.390625 530.996094 " fill-opacity="1" fill-rule="evenodd"/><path fill="#231f20" d="M 212.804688 167.792969 C 214.464844 171.945312 220.382812 172.660156 224.539062 173.445312 C 227.191406 173.949219 238.609375 177.328125 240.308594 173.78125 C 241.738281 170.796875 214.808594 164.292969 212.804688 167.792969 " fill-opacity="1" fill-rule="evenodd"/><path fill="#be171d" d="M 108.371094 526.84375 C 104.503906 515.550781 106.894531 510.191406 105.3125 506.667969 C 104.480469 504.8125 102.042969 503.5 100.167969 505.496094 C 96.53125 509.378906 100.179688 527.027344 108.371094 526.84375 " fill-opacity="1" fill-rule="evenodd"/><path fill="#918f8f" d="M 147.027344 481.695312 C 144.066406 470.101562 139.53125 462.855469 135.652344 448.925781 L 134.542969 446.253906 C 130.632812 452.261719 139.855469 471.902344 142.957031 477.792969 C 144.546875 480.804688 144.039062 480.457031 147.027344 481.695312 " fill-opacity="1" fill-rule="evenodd"/><g clip-path="url(#8de593f92f)"><path fill="#be171d" d="M 34.242188 532.078125 C 34.273438 531.226562 33.203125 530.40625 32.582031 527.707031 C 31.050781 521.0625 31.339844 510.621094 30.738281 507.917969 L 26.664062 508.160156 C 23.265625 515.175781 29.265625 535.085938 34.242188 532.078125 " fill-opacity="1" fill-rule="evenodd"/></g><path fill="#7b7979" d="M 139.773438 72.207031 C 141.609375 65.21875 139.140625 52.378906 141.492188 43.679688 C 135.925781 42.988281 136.09375 42.019531 136.269531 57.007812 C 136.320312 61.386719 135.972656 69.574219 139.773438 72.207031 " fill-opacity="1" fill-rule="evenodd"/><path fill="#e8bc63" d="M 163.992188 286.320312 C 165.230469 283.773438 164.988281 285.363281 165.785156 281.238281 C 167.128906 274.296875 165.699219 268.105469 164.65625 261.570312 C 162.765625 249.738281 164.261719 244.511719 157.234375 243.085938 C 156.894531 252.539062 157.601562 261.042969 158.167969 270.453125 C 158.664062 278.679688 158.835938 285.285156 163.992188 286.320312 " fill-opacity="1" fill-rule="evenodd"/><path fill="#be171d" d="M 231.644531 530.554688 C 231.953125 529.078125 230.023438 509.1875 229.1875 507.082031 C 225.726562 507.660156 225.992188 507.265625 225.597656 511.5 C 225.121094 516.648438 225.777344 528.886719 231.644531 530.554688 " fill-opacity="1" fill-rule="evenodd"/><path fill="#c2953f" d="M 149.328125 296.78125 C 148.609375 298.824219 148.996094 309.566406 155.460938 310.824219 C 155.542969 310.640625 155.617188 310.136719 155.632812 310.253906 C 155.683594 310.652344 159.664062 291.839844 149.328125 296.78125 " fill-opacity="1" fill-rule="evenodd"/><path fill="#be171d" d="M 123.863281 524.996094 L 121.675781 507.660156 C 111.539062 503.609375 117.964844 524.433594 123.863281 524.996094 " fill-opacity="1" fill-rule="evenodd"/><path fill="#c2953f" d="M 161.410156 305.328125 C 164.585938 304.113281 167.253906 295.050781 167.253906 295.050781 C 165.8125 292.480469 164.800781 290.738281 160.339844 291.269531 C 158.828125 295.070312 160.035156 302.40625 161.410156 305.328125 " fill-opacity="1" fill-rule="evenodd"/><path fill="#be171d" d="M 38.964844 514.890625 C 38.964844 519.121094 39.320312 525.292969 42.769531 527.214844 C 42.890625 527.007812 43.058594 526.453125 43.09375 526.574219 C 43.132812 526.691406 43.335938 526.082031 43.382812 525.902344 L 44.488281 513.210938 C 44.152344 508.347656 38.964844 508.109375 38.964844 514.890625 " fill-opacity="1" fill-rule="evenodd"/><path fill="#231f20" d="M 329.347656 265.625 C 330.417969 263.074219 328.492188 258.644531 327.464844 256.855469 C 325.671875 253.742188 323.117188 252.757812 319.175781 252.660156 C 319 257.800781 321.851562 256.714844 326.105469 262.5625 C 327.59375 264.605469 326.394531 263.976562 329.347656 265.625 " fill-opacity="1" fill-rule="evenodd"/><path fill="#f0d39b" d="M 151.199219 283.171875 C 154.851562 287.21875 157.628906 287.558594 160.410156 282.054688 C 158.71875 278.480469 159.097656 277.699219 154.199219 276.6875 C 152.496094 279.414062 151.433594 279.210938 151.199219 283.171875 " fill-opacity="1" fill-rule="evenodd"/><path fill="#8f5e23" d="M 166.71875 310.945312 C 169.121094 310.75 170.296875 310.3125 171.628906 309.441406 C 172.480469 302.679688 169.582031 311.363281 172.0625 303.289062 C 164.480469 304.714844 162.367188 305.375 166.71875 310.945312 " fill-opacity="1" fill-rule="evenodd"/><path fill="#be171d" d="M 52.699219 530.925781 C 54.71875 528.929688 55.0625 523.214844 54.550781 516.707031 C 53.996094 509.621094 54.316406 512.910156 53.160156 509.28125 C 51.765625 516.234375 51.636719 522.632812 52.699219 530.925781 " fill-opacity="1" fill-rule="evenodd"/></svg>